<?xml version="1.0" standalone="no"?>
<!DOCTYPE svg PUBLIC "-//W3C//DTD SVG 20010904//EN"
 "http://www.w3.org/TR/2001/REC-SVG-20010904/DTD/svg10.dtd">
<svg version="1.0" xmlns="http://www.w3.org/2000/svg"
 width="604.000000pt" height="571.000000pt" viewBox="0 0 604.000000 571.000000"
 preserveAspectRatio="xMidYMid meet">

<g transform="translate(0.000000,571.000000) scale(0.100000,-0.100000)"
fill="#000000" stroke="none">
<path d="M2360 5680 c-31 -31 -27 -93 6 -119 57 -45 134 -8 134 64 0 48 -29
75 -80 75 -27 0 -47 -7 -60 -20z"/>
<path d="M1729 5522 c-21 -19 -34 -41 -38 -67 -6 -36 -12 -42 -73 -75 -187
-100 -391 -243 -561 -394 -186 -166 -397 -420 -491 -591 -24 -43 -25 -46 -4
-20 182 234 365 431 528 567 122 102 319 234 489 327 l133 74 35 -17 c74 -35
152 -4 172 70 32 115 -103 204 -190 126z"/>
<path d="M2580 5479 c-686 -102 -1280 -429 -1705 -939 -43 -52 -89 -104 -101
-115 -40 -35 -187 -265 -256 -401 -153 -298 -239 -574 -284 -914 -22 -173 -15
-543 15 -715 41 -244 93 -419 185 -635 199 -463 499 -838 924 -1153 200 -148
497 -308 739 -396 336 -122 711 -182 1056 -166 156 6 159 6 183 -16 20 -19 27
-21 49 -11 52 24 19 104 -35 87 -10 -3 -22 -15 -25 -26 -6 -17 -16 -19 -98
-19 -126 0 -309 17 -452 41 -607 101 -1152 375 -1584 794 -466 452 -738 968
-833 1580 -31 201 -31 549 1 754 65 426 221 816 434 1085 120 151 363 389 500
491 184 136 488 313 519 303 6 -2 -31 -28 -83 -57 -219 -125 -372 -244 -559
-437 -588 -605 -840 -1413 -699 -2234 73 -423 260 -832 536 -1175 90 -112 299
-320 413 -410 384 -306 860 -507 1355 -571 174 -23 504 -23 680 0 565 73 1105
329 1508 716 93 88 101 94 136 91 62 -4 100 54 67 104 -40 60 -121 32 -121
-42 0 -49 -6 -56 -130 -156 -748 -600 -1713 -779 -2569 -477 -539 190 -973
527 -1288 1000 -98 147 -216 377 -273 535 -149 405 -184 885 -95 1316 90 436
308 846 628 1180 381 398 859 643 1429 731 l142 22 -34 37 c-40 45 -59 106
-53 171 l5 48 -51 -1 c-28 -1 -107 -10 -176 -20z"/>
<path d="M2893 4821 c-34 -3 -67 -11 -74 -18 -6 -6 -27 -64 -46 -130 -19 -65
-35 -118 -36 -119 -1 0 -60 -15 -132 -33 l-130 -32 -87 91 c-68 70 -93 90
-114 90 -29 0 -267 -120 -298 -150 -23 -23 -23 -59 3 -190 15 -72 16 -98 8
-106 -7 -6 -53 -47 -103 -92 l-90 -80 -119 36 c-108 32 -121 34 -144 21 -39
-21 -179 -236 -180 -276 -1 -26 14 -49 74 -120 55 -63 74 -94 71 -108 -3 -11
-22 -68 -42 -127 l-37 -106 -66 -12 c-214 -35 -208 -31 -227 -175 -7 -61 -13
-125 -14 -142 l0 -33 275 0 274 0 5 33 c3 17 10 67 16 110 18 124 56 242 120
372 157 318 447 573 777 680 155 51 266 68 438 68 127 1 181 -4 262 -21 269
-58 500 -180 678 -358 46 -46 89 -84 94 -84 39 0 350 -144 432 -200 52 -36 57
-37 48 -16 -10 22 -4 33 70 121 44 53 81 105 81 115 0 20 -127 219 -168 263
-33 35 -58 34 -172 -3 -50 -16 -98 -30 -106 -30 -9 0 -59 39 -112 87 -53 47
-98 87 -99 88 -2 1 6 48 17 106 26 134 25 161 -2 186 -31 29 -263 143 -289
143 -14 0 -55 -33 -114 -90 l-92 -91 -74 20 c-41 11 -99 25 -130 31 l-56 11
-34 116 c-18 65 -41 125 -51 135 -14 14 -34 18 -95 18 -43 0 -94 2 -113 4 -19
2 -63 1 -97 -3z"/>
<path d="M2978 3988 c-8 -7 -109 -134 -224 -283 -114 -148 -241 -312 -281
-363 -114 -147 -106 -162 89 -162 l138 0 0 -156 0 -156 28 6 c63 15 233 18
294 7 83 -17 199 -66 254 -107 l44 -34 0 220 0 220 138 0 c122 0 141 2 155 18
10 10 17 23 17 29 0 6 -26 44 -58 84 -32 41 -159 205 -281 364 -123 160 -232
298 -243 308 -24 20 -48 22 -70 5z"/>
<path d="M3982 3693 c-56 -81 -142 -245 -142 -272 0 -34 25 -56 132 -114 75
-42 118 -46 211 -22 82 21 114 19 131 -7 26 -40 75 -174 101 -275 23 -92 25
-113 23 -303 -2 -191 0 -209 20 -261 25 -63 85 -137 137 -169 44 -27 45 -42 3
-29 -30 8 -69 33 -181 113 -80 58 -148 79 -257 79 -108 0 -179 -19 -278 -78
l-61 -35 -68 34 c-85 42 -150 56 -264 56 -119 0 -206 -21 -304 -73 l-80 -43
-3 -477 c-1 -262 1 -477 6 -477 14 0 124 69 171 107 92 76 217 262 333 493 21
43 37 66 38 54 0 -40 -62 -210 -125 -340 -54 -111 -75 -143 -140 -212 -86 -92
-144 -133 -227 -164 l-58 -21 0 -219 c0 -204 1 -219 18 -214 9 3 47 12 83 20
111 25 146 44 195 104 53 64 77 109 94 171 8 30 30 65 65 104 67 73 127 187
154 291 12 44 23 81 26 84 3 3 85 -1 182 -8 311 -22 385 -4 763 182 337 166
441 234 455 297 3 16 -6 66 -25 125 -16 54 -30 109 -30 121 0 13 -13 76 -30
140 -36 144 -90 255 -226 465 -115 178 -233 379 -292 496 -23 45 -55 93 -73
108 -61 52 -377 196 -429 196 -20 0 -35 -8 -48 -27z m463 -1693 c-15 -24 -160
-111 -210 -125 -95 -28 -166 -35 -233 -25 -64 11 -142 37 -142 49 0 3 53 5
117 3 100 -3 133 1 214 21 53 14 132 41 175 60 80 35 92 38 79 17z"/>
<path d="M4660 3362 c0 -22 228 -392 241 -392 13 0 11 108 -5 224 -14 111 -27
130 -94 142 -20 3 -61 12 -89 19 -29 7 -53 10 -53 7z"/>
<path d="M21 3226 c-8 -10 -11 -26 -7 -41 6 -22 12 -26 38 -23 38 4 58 30 42
56 -14 22 -57 27 -73 8z"/>
<path d="M1334 2843 c8 -72 56 -255 91 -348 15 -38 65 -158 112 -265 101 -231
180 -440 196 -523 l12 -60 328 346 327 346 0 74 c0 126 -58 298 -149 440 l-31
47 -446 0 -447 0 7 -57z"/>
<path d="M960 2858 c0 -35 34 -215 57 -303 72 -277 200 -530 410 -812 50 -67
105 -149 123 -181 41 -77 80 -117 150 -152 30 -15 87 -54 125 -86 230 -193
455 -327 700 -419 96 -36 279 -86 358 -98 l37 -6 0 49 c0 49 0 49 -37 55 -167
29 -332 85 -506 172 -139 69 -237 133 -420 271 -80 61 -177 127 -215 146 -64
32 -70 38 -94 93 -14 32 -54 96 -88 143 -291 398 -434 699 -495 1043 l-17 97
-44 0 c-29 0 -44 -4 -44 -12z"/>
<path d="M1224 2823 c12 -86 55 -250 87 -335 31 -84 290 -620 296 -614 4 3
-42 115 -153 373 -86 200 -157 407 -173 508 -20 115 -20 115 -42 115 -20 0
-21 -4 -15 -47z"/>
<path d="M1120 2834 c0 -48 51 -257 87 -354 48 -132 139 -315 220 -442 108
-169 108 -165 4 42 -147 292 -238 543 -267 736 -5 34 -10 44 -25 44 -14 0 -19
-7 -19 -26z"/>
<path d="M2793 2766 c-39 -8 -77 -17 -83 -21 -18 -11 -8 -221 11 -240 11 -12
66 -15 294 -15 315 -2 305 -4 305 76 0 37 -5 47 -40 77 -120 102 -324 154
-487 123z"/>
<path d="M11 2575 c-4 -132 54 -434 121 -625 50 -143 57 -179 43 -232 -17 -63
24 -118 86 -118 53 0 89 33 96 87 5 37 2 45 -25 73 -17 17 -41 30 -55 30 -20
0 -29 10 -50 58 -100 224 -150 395 -206 707 -6 35 -9 41 -10 20z"/>
<path d="M2459 2287 c-14 -7 -124 -118 -244 -247 -120 -129 -263 -281 -318
-337 l-100 -101 44 -12 c113 -29 262 -79 465 -155 286 -108 491 -165 595 -165
l29 0 -1 373 c-1 204 -4 413 -8 462 l-6 90 -65 32 c-125 63 -321 93 -391 60z"/>
<path d="M2102 1416 c300 -155 623 -264 781 -266 36 0 38 2 35 27 -3 27 -6 28
-96 40 -124 16 -270 56 -427 115 -118 45 -351 128 -400 143 -11 3 37 -23 107
-59z"/>
<path d="M2005 1390 c8 -12 307 -210 370 -244 131 -72 319 -142 458 -172 88
-18 89 -18 85 8 -3 19 -13 24 -73 35 -169 31 -376 119 -683 291 -89 50 -160
87 -157 82z"/>
<path d="M2580 1157 c10 -11 165 -64 235 -81 39 -10 78 -20 88 -22 13 -4 17 1
17 19 0 22 -5 24 -96 36 -84 11 -157 26 -229 48 -11 3 -18 3 -15 0z"/>
<path d="M1020 725 c-16 -20 -5 -62 19 -70 42 -13 72 25 51 65 -13 24 -52 27
-70 5z"/>
</g>
</svg>
